<?xml version="1.0" standalone="no"?>
<!DOCTYPE svg PUBLIC "-//W3C//DTD SVG 20010904//EN"
 "http://www.w3.org/TR/2001/REC-SVG-20010904/DTD/svg10.dtd">
<svg version="1.0" xmlns="http://www.w3.org/2000/svg"
 width="64.000000pt" height="64.000000pt" viewBox="0 0 64.000000 64.000000"
 preserveAspectRatio="xMidYMid meet">

<g transform="translate(0.000000,64.000000) scale(0.100000,-0.100000)"
fill="#000000" stroke="none">
<path d="M238 614 c-48 -25 -58 -60 -58 -196 0 -142 13 -177 74 -199 33 -12
36 -16 36 -53 0 -39 0 -39 -20 -21 -20 18 -21 18 -43 -3 l-22 -22 58 -57 57
-58 57 58 58 57 -22 22 c-22 21 -23 21 -43 3 -20 -18 -20 -18 -20 21 0 37 3
41 36 53 61 22 74 57 74 199 0 137 -10 171 -60 197 -37 19 -127 19 -162 -1z
m173 -33 c23 -23 29 -39 29 -70 l0 -41 -120 0 -120 0 0 41 c0 31 6 47 29 70
26 26 36 29 91 29 55 0 65 -3 91 -29z m29 -212 c0 -76 -2 -82 -29 -110 -47
-47 -61 -39 -61 31 l0 60 -30 0 -30 0 0 -60 c0 -70 -14 -78 -61 -31 -27 28
-29 34 -29 110 l0 81 120 0 120 0 0 -81z m-110 -159 c0 -66 3 -120 7 -120 4 0
17 10 30 22 42 39 38 8 -5 -35 l-42 -42 -42 42 c-43 43 -47 74 -5 35 13 -12
26 -22 30 -22 4 0 7 54 7 120 0 73 4 120 10 120 6 0 10 -47 10 -120z"/>
<path d="M290 540 c0 -49 1 -50 30 -50 29 0 30 1 30 50 0 49 -1 50 -30 50 -29
0 -30 -1 -30 -50z m40 0 c0 -16 -4 -30 -10 -30 -5 0 -10 14 -10 30 0 17 5 30
10 30 6 0 10 -13 10 -30z"/>
</g>
</svg>
